# File created by Blade
# Date/Time:  Thu Jan 22 19:29:39 2015
# Frame Rate: 120.000 fps
#------------------------------------------------------
:FULLY-SPECIFIED
:DEGREES
2025
root -3.253844 33.005087 3.742393 9.005889 -6.870395 2.287730
RightUpLeg 0.361470 -2.522973 0.080202
RightLeg -1.659506 -0.000000 0.000000
RightFoot -11.993825 -3.660579 2.269156
RightToeBase 4.143572 -0.000000 -0.000000
LeftUpLeg 0.166568 5.293528 0.260480
LeftLeg 0.117378 -0.000000 -0.000000
LeftFoot -12.507004 4.485683 -17.056400
LeftToeBase 8.332187 -0.000000 -0.000000
Spine -10.850750 -2.206148 -1.622963
RightShoulder -18.376608 -13.859994 -25.737419
RightArm 20.056871 33.177034 42.868176
RightForeArm -5.383894 -0.000000 9.859937
RightHand 10.412303 -0.000000 6.687692
RightHandThumb1 -24.326973 -0.000000 -32.862282
LeftShoulder -24.992020 8.798637 27.989307
LeftArm 19.243018 -34.277629 -47.513785
LeftForeArm 1.209008 -0.000000 3.138283
LeftHand 3.085738 0.000000 33.184344
LeftHandThumb1 -26.253704 0.000000 33.147579
Head 1.583202 7.838439 -0.943147
2026
root -3.247760 33.006568 3.739123 8.992519 -6.887929 2.280336
RightUpLeg 0.367762 -2.531993 0.074313
RightLeg -1.665271 -0.000000 0.000000
RightFoot -11.976598 -3.632165 2.277835
RightToeBase 4.128714 -0.000000 -0.000000
LeftUpLeg 0.171567 5.328252 0.256731
LeftLeg 0.124899 -0.000000 -0.000000
LeftFoot -12.500293 4.473552 -17.038629
LeftToeBase 8.300372 -0.000000 -0.000000
Spine -10.840590 -2.214928 -1.596885
RightShoulder -18.367698 -13.856424 -25.762153
RightArm 20.088279 33.187313 42.888137
RightForeArm -5.386235 -0.000000 9.868380
RightHand 10.406330 -0.000000 6.745896
RightHandThumb1 -24.326973 -0.000000 -32.862282
LeftShoulder -24.937109 8.805185 27.994058
LeftArm 19.148413 -34.289879 -47.493590
LeftForeArm 1.196617 0.000000 3.176642
LeftHand 3.087083 0.000000 33.122418
LeftHandThumb1 -26.253704 0.000000 33.147579
Head 1.611838 7.896364 -1.004241
2027
root -3.241574 33.008129 3.735135 8.985199 -6.906447 2.273486
RightUpLeg 0.365330 -2.559828 0.071541
RightLeg -1.667464 -0.000000 0.000000
RightFoot -11.953355 -3.598475 2.298863
RightToeBase 4.161948 -0.000000 -0.000000
LeftUpLeg 0.171711 5.352979 0.251416
LeftLeg 0.130429 -0.000000 -0.000000
LeftFoot -12.488810 4.464812 -17.030972
LeftToeBase 8.272346 -0.000000 -0.000000
Spine -10.837741 -2.204711 -1.580510
RightShoulder -18.365789 -13.839911 -25.779355
RightArm 20.074326 33.213173 42.890430
RightForeArm -5.429083 -0.000000 9.915526
RightHand 10.411671 -0.000000 6.858668
RightHandThumb1 -24.326973 -0.000000 -32.862282
LeftShoulder -24.966304 8.771597 28.002056
LeftArm 19.200503 -34.192802 -47.512689
LeftForeArm 1.109472 -0.000000 3.132959
LeftHand 3.097891 -0.000000 33.115120
LeftHandThumb1 -26.253704 0.000000 33.147579
Head 1.646116 7.921971 -1.060451
2028
root -3.235379 33.009167 3.732968 8.977718 -6.923360 2.274712
RightUpLeg 0.370432 -2.600375 0.056025
RightLeg -1.680521 -0.000000 0.000000
RightFoot -11.928277 -3.537869 2.314791
RightToeBase 4.109527 -0.000000 -0.000000
LeftUpLeg 0.176806 5.426343 0.239281
LeftLeg 0.127533 -0.000000 -0.000000
LeftFoot -12.462177 4.407339 -16.981815
LeftToeBase 8.246574 -0.000000 -0.000000
Spine -10.840445 -2.209178 -1.569049
RightShoulder -18.365489 -13.843717 -25.799163
RightArm 20.100607 33.200433 42.901415
RightForeArm -5.421260 -0.000000 9.928050
RightHand 10.397419 0.000000 6.855049
RightHandThumb1 -24.326973 -0.000000 -32.862282
LeftShoulder -24.926102 8.796007 27.998864
LeftArm 19.149987 -34.249028 -47.527830
LeftForeArm 1.093959 0.000000 3.198037
LeftHand 3.143064 0.000000 33.240112
LeftHandThumb1 -26.253704 0.000000 33.147579
Head 1.680440 7.958872 -1.111810
2029
root -3.229494 33.010802 3.730429 8.972201 -6.941352 2.273818
RightUpLeg 0.372330 -2.637084 0.044675
RightLeg -1.692063 -0.000000 0.000000
RightFoot -11.907811 -3.486279 2.320697
RightToeBase 4.125254 -0.000000 -0.000000
LeftUpLeg 0.181281 5.462226 0.228149
LeftLeg 0.121701 -0.000000 -0.000000
LeftFoot -12.445297 4.395153 -16.971870
LeftToeBase 8.262509 -0.000000 -0.000000
Spine -10.851229 -2.205670 -1.563090
RightShoulder -18.351991 -13.836623 -25.806743
RightArm 20.101852 33.189064 42.884091
RightForeArm -5.436599 -0.000000 9.930931
RightHand 10.370714 0.000000 6.842665
RightHandThumb1 -24.326973 -0.000000 -32.862282
LeftShoulder -24.914478 8.796456 28.000014
LeftArm 19.127945 -34.185710 -47.504222
LeftForeArm 1.040960 -0.000000 3.211128
LeftHand 3.127336 0.000000 33.158234
LeftHandThumb1 -26.253704 0.000000 33.147579
Head 1.724758 7.987792 -1.150999
2030
root -3.222851 33.011895 3.727941 8.974432 -6.955428 2.275927
RightUpLeg 0.369401 -2.661447 0.029064
RightLeg -1.710935 -0.000000 0.000000
RightFoot -11.893159 -3.447441 2.344552
RightToeBase 4.172339 -0.000000 -0.000000
LeftUpLeg 0.180999 5.509671 0.212352
LeftLeg 0.106828 -0.000000 -0.000000
LeftFoot -12.422633 4.364901 -16.970784
LeftToeBase 8.261497 -0.000000 -0.000000
Spine -10.872394 -2.209241 -1.556441
RightShoulder -18.336519 -13.826307 -25.806082
RightArm 20.125253 33.147062 42.834238
RightForeArm -5.383457 -0.000000 9.856740
RightHand 10.377435 -0.000000 6.784456
RightHandThumb1 -24.326973 -0.000000 -32.862282
LeftShoulder -24.913224 8.806819 28.000111
LeftArm 19.137331 -34.156467 -47.517830
LeftForeArm 1.056217 -0.000000 3.211426
LeftHand 3.045725 -0.000000 33.074655
LeftHandThumb1 -26.253704 0.000000 33.147579
Head 1.775304 8.017497 -1.177958
2031
root -3.216643 33.012577 3.726228 8.973836 -6.966989 2.286657
RightUpLeg 0.371078 -2.709881 0.009857
RightLeg -1.728911 -0.000000 0.000000
RightFoot -11.884022 -3.410757 2.321517
RightToeBase 4.186194 -0.000000 -0.000000
LeftUpLeg 0.179998 5.551370 0.190210
LeftLeg 0.101590 -0.000000 -0.000000
LeftFoot -12.401664 4.336242 -16.949647
LeftToeBase 8.264504 -0.000000 -0.000000
Spine -10.895290 -2.212319 -1.560905
RightShoulder -18.325129 -13.832564 -25.815639
RightArm 20.131985 33.125395 42.816737
RightForeArm -5.376133 -0.000000 9.852982
RightHand 10.337025 -0.000000 6.736138
RightHandThumb1 -24.326973 -0.000000 -32.862282
LeftShoulder -24.901938 8.780288 28.008116
LeftArm 19.108079 -34.147744 -47.509256
LeftForeArm 1.090339 -0.000000 3.238226
LeftHand 3.027879 0.000000 33.036930
LeftHandThumb1 -26.253704 0.000000 33.147579
Head 1.829548 8.054554 -1.200699
2032
root -3.212002 33.013667 3.725197 8.974913 -6.971119 2.291568
RightUpLeg 0.377693 -2.734289 -0.005263
RightLeg -1.755304 -0.000000 0.000000
RightFoot -11.857874 -3.381171 2.328689
RightToeBase 4.177404 -0.000000 -0.000000
LeftUpLeg 0.183379 5.564743 0.180678
LeftLeg 0.086463 -0.000000 -0.000000
LeftFoot -12.368661 4.319430 -16.927374
LeftToeBase 8.216797 -0.000000 -0.000000
Spine -10.922718 -2.216152 -1.573575
RightShoulder -18.321626 -13.856812 -25.792131
RightArm 20.150526 33.114590 42.789261
RightForeArm -5.379526 0.000000 9.842439
RightHand 10.315904 -0.000000 6.654509
RightHandThumb1 -24.326973 -0.000000 -32.862282
LeftShoulder -24.888622 8.775860 28.033184
LeftArm 19.097904 -34.139335 -47.529605
LeftForeArm 1.115038 -0.000000 3.269939
LeftHand 2.988880 -0.000000 33.087350
LeftHandThumb1 -26.253704 0.000000 33.147579
Head 1.894582 7.973746 -1.232474
2033
root -3.206536 33.014576 3.723955 8.978451 -6.976954 2.296981
RightUpLeg 0.384083 -2.746952 -0.016896
RightLeg -1.783792 -0.000000 0.000000
RightFoot -11.841746 -3.383239 2.356299
RightToeBase 4.184444 -0.000000 -0.000000
LeftUpLeg 0.180807 5.600555 0.166668
LeftLeg 0.078652 -0.000000 -0.000000
LeftFoot -12.352620 4.279284 -16.946618
LeftToeBase 8.235618 -0.000000 -0.000000
Spine -10.949096 -2.211824 -1.576389
RightShoulder -18.314450 -13.859815 -25.789912
RightArm 20.134706 33.124557 42.760128
RightForeArm -5.453714 -0.000000 9.854825
RightHand 10.352151 -0.000000 6.651495
RightHandThumb1 -24.326973 -0.000000 -32.862282
LeftShoulder -24.878149 8.779929 28.031546
LeftArm 19.102903 -34.131798 -47.543641
LeftForeArm 1.138278 -0.000000 3.297664
LeftHand 2.980841 0.000000 33.137767
LeftHandThumb1 -26.253704 0.000000 33.147579
Head 1.926519 7.985498 -1.242962
2034
root -3.199404 33.014654 3.722901 8.982636 -6.980414 2.300868
RightUpLeg 0.385022 -2.789380 -0.033850
RightLeg -1.806238 -0.000000 0.000000
RightFoot -11.830766 -3.330011 2.357893
RightToeBase 4.189575 -0.000000 -0.000000
LeftUpLeg 0.195899 5.535838 0.156427
LeftLeg 0.035427 -0.000000 -0.000000
LeftFoot -12.341680 4.314992 -16.980295
LeftToeBase 8.231030 -0.000000 -0.000000
Spine -10.978210 -2.215025 -1.551330
RightShoulder -18.307056 -13.878481 -25.838757
RightArm 20.151748 33.170390 42.809136
RightForeArm -5.470583 -0.000000 9.870021
RightHand 10.298681 -0.000000 6.648011
RightHandThumb1 -24.326973 -0.000000 -32.862282
LeftShoulder -24.872875 8.777254 27.988313
LeftArm 19.097730 -34.116368 -47.513987
LeftForeArm 1.160131 -0.000000 3.309915
LeftHand 2.984044 -0.000000 33.170570
LeftHandThumb1 -26.253704 0.000000 33.147579
Head 1.994417 8.099826 -1.269525
2035
root -3.195135 33.015393 3.721772 8.987243 -6.976616 2.302736
RightUpLeg 0.387542 -2.823013 -0.037868
RightLeg -1.825634 -0.000000 0.000000
RightFoot -11.817592 -3.318800 2.361691
RightToeBase 4.217523 -0.000000 -0.000000
LeftUpLeg 0.189640 5.530673 0.149179
LeftLeg 0.041232 -0.000000 -0.000000
LeftFoot -12.336041 4.273675 -17.049996
LeftToeBase 8.211270 -0.000000 -0.000000
Spine -11.002377 -2.235277 -1.555548
RightShoulder -18.293265 -13.870286 -25.821207
RightArm 20.135783 33.181513 42.767073
RightForeArm -5.451433 -0.000000 9.865247
RightHand 10.312962 -0.000000 6.675836
RightHandThumb1 -24.326973 -0.000000 -32.862282
LeftShoulder -24.896483 8.807132 27.990544
LeftArm 19.137180 -34.107454 -47.555277
LeftForeArm 1.216594 -0.000000 3.334230
LeftHand 2.999563 0.000000 33.195112
LeftHandThumb1 -26.253704 0.000000 33.147579
Head 2.048824 8.029225 -1.299628
2036
root -3.189562 33.015505 3.721782 8.984760 -6.966316 2.306353
RightUpLeg 0.403661 -2.839383 -0.049557
RightLeg -1.854468 -0.000000 0.000000
RightFoot -11.802349 -3.321507 2.357447
RightToeBase 4.202843 -0.000000 -0.000000
LeftUpLeg 0.190838 5.520966 0.140152
LeftLeg 0.033197 -0.000000 -0.000000
LeftFoot -12.340820 4.288742 -16.987838
LeftToeBase 8.284177 -0.000000 -0.000000
Spine -11.025353 -2.233299 -1.531425
RightShoulder -18.293105 -13.856766 -25.878561
RightArm 20.098241 33.182095 42.775297
RightForeArm -5.463393 -0.000000 9.891026
RightHand 10.383520 -0.000000 6.688715
RightHandThumb1 -24.326973 -0.000000 -32.862282
LeftShoulder -24.879540 8.823201 27.941029
LeftArm 19.164502 -34.093320 -47.539609
LeftForeArm 1.244772 -0.000000 3.324215
LeftHand 3.030124 -0.000000 33.134350
LeftHandThumb1 -26.253704 0.000000 33.147579
Head 2.090979 8.152810 -1.313430
2037
root -3.184672 33.015741 3.721520 8.981913 -6.956052 2.305230
RightUpLeg 0.414401 -2.858820 -0.058238
RightLeg -1.871347 -0.000000 0.000000
RightFoot -11.791214 -3.295527 2.372236
RightToeBase 4.202886 -0.000000 -0.000000
LeftUpLeg 0.190682 5.516856 0.135593
LeftLeg 0.038606 -0.000000 -0.000000
LeftFoot -12.357751 4.264837 -17.028394
LeftToeBase 8.329394 -0.000000 -0.000000
Spine -11.039941 -2.231443 -1.525095
RightShoulder -18.307869 -13.862778 -25.868722
RightArm 20.086964 33.169509 42.727636
RightForeArm -5.464781 -0.000000 9.878884
RightHand 10.345956 -0.000000 6.788731
RightHandThumb1 -24.326973 -0.000000 -32.862282
LeftShoulder -24.883932 8.845981 27.923933
LeftArm 19.210987 -34.058556 -47.554111
LeftForeArm 1.298243 0.000000 3.324731
LeftHand 3.020034 -0.000000 33.126439
LeftHandThumb1 -26.253704 0.000000 33.147579
Head 2.125007 8.080528 -1.352991
